# xmcd CD database file
# Copyright (C) 1997 Ti Kan
#
# Track frame offsets:
#  150
#  14047
#  35825
#
# Disc length: 811 seconds
#
# Revision: 1
# Processed by: cddbd v1.4b41PL1 Copyright (c) Steve Scherf et al.
# Submitted via: CDWizzard Release:4.30
#
DISCID=24032903
DTITLE=James T Horn - Geronimo
DYEAR=1900
DGENRE=
TTITLE0=Geronimo (radio edit)
TTITLE1=Geronimo (dance mix)
TTITLE2=Geronimo (beat mix)
EXTD=
EXTT0=
EXTT1=
EXTT2=
PLAYORDER=
